<svg width="1425" height="3072" viewBox="0 0 1425 3072" fill="none" xmlns="http://www.w3.org/2000/svg">
<path d="M17 0H0V3072H17V0Z" fill="#FF0022"/>
<path d="M0 0L0 17L1728 17V0L0 0Z" fill="#FF0022"/>
<path d="M38 28H34C30.6863 28 28 30.6863 28 34V3083C28 3086.31 30.6863 3089 34 3089H38C41.3137 3089 44 3086.31 44 3083V34C44 30.6863 41.3137 28 38 28Z" fill="#5B9589"/>
<path d="M66 56H62C58.6863 56 56 58.6863 56 62V3083C56 3086.31 58.6863 3089 62 3089H66C69.3137 3089 72 3086.31 72 3083V62C72 58.6863 69.3137 56 66 56Z" fill="#017A75"/>
<rect x="28" y="28" width="1397" height="17" fill="#5B9589"/>
<path d="M56 56H1433V73H56V56Z" fill="#017A75"/>
</svg>
