<svg width="124" height="124" viewBox="0 0 124 124" fill="none" xmlns="http://www.w3.org/2000/svg">
<path d="M-52.9998 64.8511C-20.4552 97.3957 32.3067 97.3957 64.8513 64.8511C97.3959 32.3065 97.3959 -20.4554 64.8513 -53" stroke="#017A75" stroke-width="16.6667" stroke-linecap="round" stroke-linejoin="round"/>
<path d="M-29.4298 41.2809C-20.053 50.6577 -7.33527 55.9256 5.92555 55.9256C19.1864 55.9256 31.9041 50.6577 41.2809 41.2809C50.6577 31.9041 55.9256 19.1864 55.9256 5.92557C55.9256 -7.33526 50.6577 -20.053 41.2809 -29.4298" stroke="#5B9589" stroke-width="16.6667" stroke-linecap="round" stroke-linejoin="round"/>
<path d="M-5.85924 17.7107C-2.73364 20.8363 1.50559 22.5922 5.92587 22.5922C10.3461 22.5922 14.5854 20.8363 17.711 17.7107C20.8366 14.5851 22.5925 10.3458 22.5925 5.92557C22.5925 1.50529 20.8366 -2.73394 17.711 -5.85954" stroke="#FF0022" stroke-width="16.6667" stroke-linecap="round" stroke-linejoin="round"/>
</svg>
