<svg width="200" height="167" viewBox="0 0 200 167" fill="none" xmlns="http://www.w3.org/2000/svg">
<path d="M183.203 0H16.7969C12.1094 0 8.13802 1.6276 4.88281 4.88281C1.6276 8.13802 0 11.9792 0 16.4062V158.203C0 163.672 2.73438 166.406 8.20312 166.406H191.797C197.266 166.406 200 163.672 200 158.203V16.4062C200 11.9792 198.372 8.13802 195.117 4.88281C191.862 1.6276 187.891 0 183.203 0ZM183.203 150H16.7969V58.2031H183.203V150ZM183.203 41.4062H16.7969V16.4062H183.203V41.4062ZM75 75H33.2031V133.203H75V75ZM58.2031 116.406H50V91.4062H58.2031V116.406ZM91.7969 75H166.797V91.4062H91.7969V75ZM91.7969 108.203H150V125H91.7969V108.203Z" fill="white"/>
</svg>
