<svg width="200" height="197" viewBox="0 0 200 197" fill="none" xmlns="http://www.w3.org/2000/svg">
<path d="M125 8.88672H200V196.387H0V0L125 125V8.88672ZM12.5 183.887H166.113L12.5 30.2734V183.887ZM171.387 171.387L183.887 183.887H187.5V21.3867H137.5V33.8867H162.5V46.3867H137.5V58.8867H162.5V71.3867H137.5V83.8867H175V96.3867H137.5V108.887H162.5V121.387H137.5V133.887H162.5V146.387H146.387L158.887 158.887H175V171.387H171.387ZM37.5 100L96.3867 158.887H37.5V100ZM50 130.273V146.387H66.1133L50 130.273Z" fill="white"/>
</svg>
