<svg width="200" height="200" viewBox="0 0 200 200" fill="none" xmlns="http://www.w3.org/2000/svg">
<path fill-rule="evenodd" clip-rule="evenodd" d="M188.96 0H11.04C4.94 0 0 4.94 0 11.04V188.96C0 195.06 4.94 200 11.04 200H106.82V122.55H80.76V92.37H106.82V70.1C106.82 44.26 122.6 30.2 145.65 30.2C156.69 30.2 166.17 31.02 168.94 31.39V58.39H152.96C140.42 58.39 138 64.35 138 73.09V92.36H167.89L163.99 122.54H137.99V200H188.96C195.06 200 200 195.06 200 188.96V11.04C200 4.94 195.06 0 188.96 0Z" fill="#5B9589"/>
</svg>
