<svg width="174" height="174" viewBox="0 0 174 174" fill="none" xmlns="http://www.w3.org/2000/svg">
<path fill-rule="evenodd" clip-rule="evenodd" d="M37.2 0C27.3364 -7.27315e-07 17.8766 3.91731 10.9007 10.8906C3.92473 17.8638 0.00378786 27.3221 0 37.1857V136.386C0 146.252 3.91927 155.714 10.8956 162.69C17.872 169.666 27.3339 173.586 37.2 173.586H136.4C146.264 173.582 155.722 169.661 162.695 162.685C169.668 155.709 173.586 146.249 173.586 136.386V37.1857C173.582 27.3246 169.663 17.8685 162.69 10.8956C155.717 3.92277 146.261 0.00378618 136.4 0H37.2ZM147.1 37.2429C147.1 40.0845 145.971 42.8097 143.962 44.819C141.953 46.8283 139.227 47.9571 136.386 47.9571C133.544 47.9571 130.819 46.8283 128.81 44.819C126.8 42.8097 125.671 40.0845 125.671 37.2429C125.671 34.4013 126.8 31.676 128.81 29.6667C130.819 27.6574 133.544 26.5286 136.386 26.5286C139.227 26.5286 141.953 27.6574 143.962 29.6667C145.971 31.676 147.1 34.4013 147.1 37.2429ZM86.8143 57.0714C78.9336 57.0714 71.3756 60.202 65.8031 65.7745C60.2306 71.347 57.1 78.905 57.1 86.7857C57.1 94.6664 60.2306 102.224 65.8031 107.797C71.3756 113.369 78.9336 116.5 86.8143 116.5C94.695 116.5 102.253 113.369 107.825 107.797C113.398 102.224 116.529 94.6664 116.529 86.7857C116.529 78.905 113.398 71.347 107.825 65.7745C102.253 60.202 94.695 57.0714 86.8143 57.0714ZM42.8 86.7857C42.8 75.1162 47.4357 63.9246 55.6873 55.673C63.9389 47.4214 75.1305 42.7857 86.8 42.7857C98.4695 42.7857 109.661 47.4214 117.913 55.673C126.164 63.9246 130.8 75.1162 130.8 86.7857C130.8 98.4552 126.164 109.647 117.913 117.898C109.661 126.15 98.4695 130.786 86.8 130.786C75.1305 130.786 63.9389 126.15 55.6873 117.898C47.4357 109.647 42.8 98.4552 42.8 86.7857Z" fill="#FF0022"/>
</svg>
