<svg width="200" height="200" viewBox="0 0 200 200" fill="none" xmlns="http://www.w3.org/2000/svg">
<path d="M174.829 199.805H24.9756C18.0813 199.805 12.1951 197.366 7.31707 192.488C2.43902 187.61 0 181.724 0 174.829V24.9756C0 18.0813 2.43902 12.1951 7.31707 7.31707C12.1951 2.43902 18.0813 0 24.9756 0H174.829C181.724 0 187.61 2.43902 192.488 7.31707C197.366 12.1951 199.805 18.0813 199.805 24.9756V174.829C199.805 181.724 197.366 187.61 192.488 192.488C187.61 197.366 181.724 199.805 174.829 199.805ZM49.9512 31.2195C49.9512 29.5285 49.3333 28.065 48.0976 26.8293C46.8618 25.5935 45.3984 24.9756 43.7073 24.9756H31.2195C29.5285 24.9756 28.065 25.5935 26.8293 26.8293C25.5935 28.065 24.9756 29.5285 24.9756 31.2195V43.7073C24.9756 45.3984 25.5935 46.8618 26.8293 48.0976C28.065 49.3333 29.5285 49.9512 31.2195 49.9512H43.7073C45.3984 49.9512 46.8618 49.3333 48.0976 48.0976C49.3333 46.8618 49.9512 45.3984 49.9512 43.7073V31.2195ZM49.9512 68.6829C49.9512 66.9919 49.3333 65.5285 48.0976 64.2927C46.8618 63.0569 45.3984 62.439 43.7073 62.439H31.2195C29.5285 62.439 28.065 63.0569 26.8293 64.2927C25.5935 65.5285 24.9756 66.9919 24.9756 68.6829V168.585C24.9756 170.276 25.5935 171.74 26.8293 172.976C28.065 174.211 29.5285 174.829 31.2195 174.829H43.7073C45.3984 174.829 46.8618 174.211 48.0976 172.976C49.3333 171.74 49.9512 170.276 49.9512 168.585V68.6829ZM174.829 99.9024C174.829 89.4959 171.187 80.6504 163.902 73.3659C156.618 66.0813 147.772 62.439 137.366 62.439C131.642 62.439 125.366 63.3496 118.537 65.1707C111.707 66.9919 105.496 69.5285 99.9024 72.7805V68.6829C99.9024 66.9919 99.2845 65.5285 98.0488 64.2927C96.813 63.0569 95.3496 62.439 93.6585 62.439H81.1707C79.4797 62.439 78.0163 63.0569 76.7805 64.2927C75.5447 65.5285 74.9268 66.9919 74.9268 68.6829V168.585C74.9268 170.276 75.5447 171.74 76.7805 172.976C78.0163 174.211 79.4797 174.829 81.1707 174.829H93.6585C95.3496 174.829 96.813 174.211 98.0488 172.976C99.2845 171.74 99.9024 170.276 99.9024 168.585V112.39C99.9024 105.496 102.341 99.6098 107.22 94.7317C112.098 89.8537 117.984 87.4146 124.878 87.4146C131.772 87.4146 137.659 89.8537 142.537 94.7317C147.415 99.6098 149.854 105.496 149.854 112.39V168.585C149.854 170.276 150.472 171.74 151.707 172.976C152.943 174.211 154.406 174.829 156.098 174.829H168.585C170.276 174.829 171.74 174.211 172.976 172.976C174.211 171.74 174.829 170.276 174.829 168.585V99.9024Z" fill="#017A75"/>
</svg>
